<mxfile host="65bd71144e">
    <diagram id="qV4aoYGIsWK1s3ZrVOML" name="Home">
        <mxGraphModel dx="507" dy="431" grid="0" gridSize="10" guides="1" tooltips="1" connect="1" arrows="1" fold="1" page="1" pageScale="1" pageWidth="850" pageHeight="1100" background="#1A1A1A" math="0" shadow="1">
            <root>
                <mxCell id="0"/>
                <mxCell id="1" parent="0"/>
                <mxCell id="33" value="&lt;font style=&quot;font-size: 24px&quot;&gt;Header&lt;/font&gt;" style="rounded=1;whiteSpace=wrap;html=1;" parent="1" vertex="1">
                    <mxGeometry x="79" y="27" width="611" height="69" as="geometry"/>
                </mxCell>
                <mxCell id="35" value="Sign up" style="rounded=1;whiteSpace=wrap;html=1;strokeColor=#1A1A1A;" parent="1" vertex="1">
                    <mxGeometry x="336.5" y="294" width="96" height="30" as="geometry"/>
                </mxCell>
                <mxCell id="36" value="Already have an account? Sign in" style="text;html=1;strokeColor=none;fillColor=none;align=center;verticalAlign=middle;whiteSpace=wrap;rounded=0;" parent="1" vertex="1">
                    <mxGeometry x="284" y="335" width="201" height="21" as="geometry"/>
                </mxCell>
            </root>
        </mxGraphModel>
    </diagram>
    <diagram id="8P_8hihGu-PD0_OISgGy" name="Sign in">
        <mxGraphModel dx="481" dy="431" grid="0" gridSize="10" guides="1" tooltips="1" connect="1" arrows="1" fold="1" page="1" pageScale="1" pageWidth="850" pageHeight="1100" background="#1A1A1A" math="0" shadow="1">
            <root>
                <mxCell id="avsixJgxy6TRpV4ocl6h-0"/>
                <mxCell id="avsixJgxy6TRpV4ocl6h-1" parent="avsixJgxy6TRpV4ocl6h-0"/>
                <mxCell id="DdzQnaDb4cV9D-8ngHLk-0" value="" style="whiteSpace=wrap;html=1;strokeColor=#1A1A1A;" parent="avsixJgxy6TRpV4ocl6h-1" vertex="1">
                    <mxGeometry x="210" y="26" width="348" height="399" as="geometry"/>
                </mxCell>
                <mxCell id="DdzQnaDb4cV9D-8ngHLk-3" value="" style="line;strokeWidth=2;html=1;" parent="avsixJgxy6TRpV4ocl6h-1" vertex="1">
                    <mxGeometry x="211.5" y="69" width="345" height="10" as="geometry"/>
                </mxCell>
                <mxCell id="DdzQnaDb4cV9D-8ngHLk-4" value="" style="line;strokeWidth=2;html=1;rotation=-90;" parent="avsixJgxy6TRpV4ocl6h-1" vertex="1">
                    <mxGeometry x="361.18" y="43.99999999999999" width="45.63" height="10" as="geometry"/>
                </mxCell>
                <mxCell id="DdzQnaDb4cV9D-8ngHLk-5" value="Team" style="text;html=1;strokeColor=none;fillColor=none;align=center;verticalAlign=middle;whiteSpace=wrap;" parent="avsixJgxy6TRpV4ocl6h-1" vertex="1">
                    <mxGeometry x="248" y="38.99999999999999" width="92" height="20" as="geometry"/>
                </mxCell>
                <mxCell id="DdzQnaDb4cV9D-8ngHLk-6" value="Individual" style="text;html=1;strokeColor=none;fillColor=none;align=center;verticalAlign=middle;whiteSpace=wrap;" parent="avsixJgxy6TRpV4ocl6h-1" vertex="1">
                    <mxGeometry x="428" y="38.99999999999999" width="92" height="20" as="geometry"/>
                </mxCell>
                <mxCell id="DdzQnaDb4cV9D-8ngHLk-33" value="Sign in" style="whiteSpace=wrap;html=1;strokeColor=#1A1A1A;" parent="avsixJgxy6TRpV4ocl6h-1" vertex="1">
                    <mxGeometry x="345.5" y="348" width="77" height="31" as="geometry"/>
                </mxCell>
                <mxCell id="pysNtUjXfseh8_R5VoDF-0" value="Team name" style="whiteSpace=wrap;html=1;strokeColor=#1A1A1A;" parent="avsixJgxy6TRpV4ocl6h-1" vertex="1">
                    <mxGeometry x="260" y="127" width="248" height="24" as="geometry"/>
                </mxCell>
                <mxCell id="pysNtUjXfseh8_R5VoDF-1" value="Organization ID" style="whiteSpace=wrap;html=1;strokeColor=#1A1A1A;" parent="avsixJgxy6TRpV4ocl6h-1" vertex="1">
                    <mxGeometry x="260" y="161" width="248" height="24" as="geometry"/>
                </mxCell>
                <mxCell id="pysNtUjXfseh8_R5VoDF-2" value="Admin / Regular" style="whiteSpace=wrap;html=1;strokeColor=#1A1A1A;" parent="avsixJgxy6TRpV4ocl6h-1" vertex="1">
                    <mxGeometry x="260" y="196" width="248" height="24" as="geometry"/>
                </mxCell>
                <mxCell id="pysNtUjXfseh8_R5VoDF-3" value="Email" style="whiteSpace=wrap;html=1;strokeColor=#1A1A1A;" parent="avsixJgxy6TRpV4ocl6h-1" vertex="1">
                    <mxGeometry x="260" y="231" width="248" height="24" as="geometry"/>
                </mxCell>
                <mxCell id="pysNtUjXfseh8_R5VoDF-6" value="Username" style="whiteSpace=wrap;html=1;strokeColor=#1A1A1A;" parent="avsixJgxy6TRpV4ocl6h-1" vertex="1">
                    <mxGeometry x="260" y="91" width="248" height="24" as="geometry"/>
                </mxCell>
                <mxCell id="pysNtUjXfseh8_R5VoDF-7" value="" style="edgeStyle=elbowEdgeStyle;elbow=horizontal;endArrow=classic;html=1;" parent="avsixJgxy6TRpV4ocl6h-1" edge="1">
                    <mxGeometry width="50" height="50" relative="1" as="geometry">
                        <mxPoint x="259" y="52" as="sourcePoint"/>
                        <mxPoint x="287" y="138" as="targetPoint"/>
                        <Array as="points">
                            <mxPoint x="259" y="148"/>
                        </Array>
                    </mxGeometry>
                </mxCell>
                <mxCell id="pysNtUjXfseh8_R5VoDF-9" value="" style="edgeStyle=elbowEdgeStyle;elbow=horizontal;endArrow=classic;html=1;" parent="avsixJgxy6TRpV4ocl6h-1" edge="1">
                    <mxGeometry width="50" height="50" relative="1" as="geometry">
                        <mxPoint x="260" y="88" as="sourcePoint"/>
                        <mxPoint x="288" y="174" as="targetPoint"/>
                        <Array as="points">
                            <mxPoint x="260" y="166"/>
                        </Array>
                    </mxGeometry>
                </mxCell>
                <mxCell id="pysNtUjXfseh8_R5VoDF-10" value="" style="edgeStyle=elbowEdgeStyle;elbow=horizontal;endArrow=classic;html=1;" parent="avsixJgxy6TRpV4ocl6h-1" edge="1">
                    <mxGeometry width="50" height="50" relative="1" as="geometry">
                        <mxPoint x="260" y="120" as="sourcePoint"/>
                        <mxPoint x="288" y="206" as="targetPoint"/>
                        <Array as="points">
                            <mxPoint x="260" y="198"/>
                        </Array>
                    </mxGeometry>
                </mxCell>
                <mxCell id="pysNtUjXfseh8_R5VoDF-11" value="" style="edgeStyle=elbowEdgeStyle;elbow=horizontal;endArrow=classic;html=1;" parent="avsixJgxy6TRpV4ocl6h-1" edge="1">
                    <mxGeometry width="50" height="50" relative="1" as="geometry">
                        <mxPoint x="260" y="158" as="sourcePoint"/>
                        <mxPoint x="288" y="244" as="targetPoint"/>
                        <Array as="points">
                            <mxPoint x="260" y="236"/>
                        </Array>
                    </mxGeometry>
                </mxCell>
                <mxCell id="pysNtUjXfseh8_R5VoDF-12" value="" style="edgeStyle=elbowEdgeStyle;elbow=horizontal;endArrow=classic;html=1;" parent="avsixJgxy6TRpV4ocl6h-1" source="DdzQnaDb4cV9D-8ngHLk-6" edge="1">
                    <mxGeometry width="50" height="50" relative="1" as="geometry">
                        <mxPoint x="512" y="91" as="sourcePoint"/>
                        <mxPoint x="484" y="106" as="targetPoint"/>
                        <Array as="points">
                            <mxPoint x="520" y="80"/>
                        </Array>
                    </mxGeometry>
                </mxCell>
                <mxCell id="pysNtUjXfseh8_R5VoDF-13" value="" style="edgeStyle=elbowEdgeStyle;elbow=horizontal;endArrow=classic;html=1;" parent="avsixJgxy6TRpV4ocl6h-1" edge="1">
                    <mxGeometry width="50" height="50" relative="1" as="geometry">
                        <mxPoint x="520" y="79" as="sourcePoint"/>
                        <mxPoint x="484" y="241" as="targetPoint"/>
                        <Array as="points">
                            <mxPoint x="520" y="215"/>
                        </Array>
                    </mxGeometry>
                </mxCell>
                <mxCell id="3qHmjixbQSMDGyq_lKGK-0" value="Password" style="whiteSpace=wrap;html=1;strokeColor=#1A1A1A;" parent="avsixJgxy6TRpV4ocl6h-1" vertex="1">
                    <mxGeometry x="260" y="265" width="248" height="24" as="geometry"/>
                </mxCell>
                <mxCell id="3qHmjixbQSMDGyq_lKGK-1" value="" style="edgeStyle=elbowEdgeStyle;elbow=horizontal;endArrow=classic;html=1;" parent="avsixJgxy6TRpV4ocl6h-1" edge="1">
                    <mxGeometry width="50" height="50" relative="1" as="geometry">
                        <mxPoint x="260" y="190" as="sourcePoint"/>
                        <mxPoint x="288" y="276" as="targetPoint"/>
                        <Array as="points">
                            <mxPoint x="260" y="268"/>
                        </Array>
                    </mxGeometry>
                </mxCell>
                <mxCell id="3qHmjixbQSMDGyq_lKGK-2" value="" style="edgeStyle=elbowEdgeStyle;elbow=horizontal;endArrow=classic;html=1;" parent="avsixJgxy6TRpV4ocl6h-1" edge="1">
                    <mxGeometry width="50" height="50" relative="1" as="geometry">
                        <mxPoint x="520" y="112" as="sourcePoint"/>
                        <mxPoint x="484" y="274" as="targetPoint"/>
                        <Array as="points">
                            <mxPoint x="520" y="248"/>
                        </Array>
                    </mxGeometry>
                </mxCell>
            </root>
        </mxGraphModel>
    </diagram>
    <diagram id="PU39AdpNwIQM0GJn7f6O" name="Sign up">
        <mxGraphModel dx="734" dy="431" grid="0" gridSize="10" guides="1" tooltips="1" connect="1" arrows="1" fold="1" page="1" pageScale="1" pageWidth="850" pageHeight="1100" background="#1A1A1A" math="0" shadow="1">
            <root>
                <mxCell id="PBVXQ97VxulmZyA4IBuh-0"/>
                <mxCell id="PBVXQ97VxulmZyA4IBuh-1" parent="PBVXQ97VxulmZyA4IBuh-0"/>
                <mxCell id="_VwVw7ztdteAVZ9nrMVN-0" value="" style="rounded=0;whiteSpace=wrap;html=1;strokeColor=#1A1A1A;" parent="PBVXQ97VxulmZyA4IBuh-1" vertex="1">
                    <mxGeometry x="210" y="19" width="348" height="399" as="geometry"/>
                </mxCell>
                <mxCell id="IfyRKu549Q2PdHlZprnz-0" value="Sign up" style="rounded=1;whiteSpace=wrap;html=1;strokeColor=#1A1A1A;" parent="PBVXQ97VxulmZyA4IBuh-1" vertex="1">
                    <mxGeometry x="345.5" y="348" width="77" height="31" as="geometry"/>
                </mxCell>
                <mxCell id="jUOGez1HjaYjTgCUNWJI-0" value="" style="line;strokeWidth=2;html=1;rotation=-90;" parent="PBVXQ97VxulmZyA4IBuh-1" vertex="1">
                    <mxGeometry x="361.18" y="43.99999999999999" width="45.63" height="10" as="geometry"/>
                </mxCell>
                <mxCell id="zKOarXrZV3ZhubogbJHi-0" value="" style="line;strokeWidth=2;html=1;" parent="PBVXQ97VxulmZyA4IBuh-1" vertex="1">
                    <mxGeometry x="211.5" y="69" width="345" height="10" as="geometry"/>
                </mxCell>
                <mxCell id="jcWeS0Pmqa5zF_NRX1VZ-0" value="Organization" style="text;html=1;strokeColor=none;fillColor=none;align=center;verticalAlign=middle;whiteSpace=wrap;rounded=0;" parent="PBVXQ97VxulmZyA4IBuh-1" vertex="1">
                    <mxGeometry x="248" y="38.99999999999999" width="92" height="20" as="geometry"/>
                </mxCell>
                <mxCell id="AYXOgpeeHPNSp2hJ59mp-0" value="Individual" style="text;html=1;strokeColor=none;fillColor=none;align=center;verticalAlign=middle;whiteSpace=wrap;rounded=0;" parent="PBVXQ97VxulmZyA4IBuh-1" vertex="1">
                    <mxGeometry x="428" y="38.99999999999999" width="92" height="20" as="geometry"/>
                </mxCell>
                <mxCell id="LOR7RFz2jBh9YxtgBr4o-0" value="Username" style="rounded=1;whiteSpace=wrap;html=1;strokeColor=#1A1A1A;" parent="PBVXQ97VxulmZyA4IBuh-1" vertex="1">
                    <mxGeometry x="260" y="91" width="248" height="24" as="geometry"/>
                </mxCell>
                <mxCell id="qCy8NFNhXRbwsjz-gA5s-0" value="Organization name" style="rounded=1;whiteSpace=wrap;html=1;strokeColor=#1A1A1A;" parent="PBVXQ97VxulmZyA4IBuh-1" vertex="1">
                    <mxGeometry x="260" y="127" width="248" height="24" as="geometry"/>
                </mxCell>
                <mxCell id="6li_VBKDKYBzJhK6y3jU-0" value="Organization ID (provide after registration)" style="rounded=1;whiteSpace=wrap;html=1;strokeColor=#1A1A1A;" parent="PBVXQ97VxulmZyA4IBuh-1" vertex="1">
                    <mxGeometry x="260" y="161" width="248" height="24" as="geometry"/>
                </mxCell>
                <mxCell id="C-LAxrs0BrAWQQz89Kq9-0" value="Admin / Regular" style="rounded=1;whiteSpace=wrap;html=1;strokeColor=#1A1A1A;" parent="PBVXQ97VxulmZyA4IBuh-1" vertex="1">
                    <mxGeometry x="260" y="196" width="248" height="24" as="geometry"/>
                </mxCell>
                <mxCell id="vgCpgtX3WO2ST8HEvAzI-0" value="Password" style="rounded=1;whiteSpace=wrap;html=1;strokeColor=#1A1A1A;" parent="PBVXQ97VxulmZyA4IBuh-1" vertex="1">
                    <mxGeometry x="260" y="265" width="248" height="24" as="geometry"/>
                </mxCell>
                <mxCell id="fx_sdzitbAaxNlJymKNU-0" value="Email" style="rounded=1;whiteSpace=wrap;html=1;strokeColor=#1A1A1A;" parent="PBVXQ97VxulmZyA4IBuh-1" vertex="1">
                    <mxGeometry x="260" y="230" width="248" height="24" as="geometry"/>
                </mxCell>
                <mxCell id="xbQ6hslH6Q2CkVOQq8uk-0" value="" style="edgeStyle=elbowEdgeStyle;elbow=horizontal;endArrow=classic;html=1;" parent="PBVXQ97VxulmZyA4IBuh-1" edge="1">
                    <mxGeometry width="50" height="50" relative="1" as="geometry">
                        <mxPoint x="255" y="65" as="sourcePoint"/>
                        <mxPoint x="283" y="139" as="targetPoint"/>
                        <Array as="points">
                            <mxPoint x="255" y="120"/>
                        </Array>
                    </mxGeometry>
                </mxCell>
                <mxCell id="xbQ6hslH6Q2CkVOQq8uk-1" value="" style="edgeStyle=elbowEdgeStyle;elbow=horizontal;endArrow=classic;html=1;" parent="PBVXQ97VxulmZyA4IBuh-1" edge="1">
                    <mxGeometry width="50" height="50" relative="1" as="geometry">
                        <mxPoint x="255" y="121" as="sourcePoint"/>
                        <mxPoint x="283" y="207" as="targetPoint"/>
                        <Array as="points">
                            <mxPoint x="255" y="199"/>
                        </Array>
                    </mxGeometry>
                </mxCell>
                <mxCell id="xbQ6hslH6Q2CkVOQq8uk-2" value="" style="edgeStyle=elbowEdgeStyle;elbow=horizontal;endArrow=classic;html=1;" parent="PBVXQ97VxulmZyA4IBuh-1" edge="1">
                    <mxGeometry width="50" height="50" relative="1" as="geometry">
                        <mxPoint x="256" y="154" as="sourcePoint"/>
                        <mxPoint x="284" y="240" as="targetPoint"/>
                        <Array as="points">
                            <mxPoint x="256" y="232"/>
                        </Array>
                    </mxGeometry>
                </mxCell>
                <mxCell id="xbQ6hslH6Q2CkVOQq8uk-3" value="" style="edgeStyle=elbowEdgeStyle;elbow=horizontal;endArrow=classic;html=1;" parent="PBVXQ97VxulmZyA4IBuh-1" edge="1">
                    <mxGeometry width="50" height="50" relative="1" as="geometry">
                        <mxPoint x="256" y="192" as="sourcePoint"/>
                        <mxPoint x="284" y="278" as="targetPoint"/>
                        <Array as="points">
                            <mxPoint x="256" y="270"/>
                        </Array>
                    </mxGeometry>
                </mxCell>
            </root>
        </mxGraphModel>
    </diagram>
    <diagram id="ikMHJ7zr29XkqbVuEH11" name="Dashboard">
        <mxGraphModel dx="734" dy="431" grid="0" gridSize="10" guides="1" tooltips="1" connect="1" arrows="1" fold="1" page="1" pageScale="1" pageWidth="850" pageHeight="1100" background="#1A1A1A" math="0" shadow="1">
            <root>
                <mxCell id="_stsKjn9J6mgS4FFukiI-0"/>
                <mxCell id="_stsKjn9J6mgS4FFukiI-1" parent="_stsKjn9J6mgS4FFukiI-0"/>
                <mxCell id="8HqMxeEqtBWhN2FCzSog-0" value="Container" style="rounded=0;whiteSpace=wrap;html=1;strokeColor=#1A1A1A;" parent="_stsKjn9J6mgS4FFukiI-1" vertex="1">
                    <mxGeometry x="51" y="19" width="718" height="399" as="geometry"/>
                </mxCell>
                <mxCell id="8HqMxeEqtBWhN2FCzSog-1" value="Nav Bar" style="rounded=0;whiteSpace=wrap;html=1;" parent="_stsKjn9J6mgS4FFukiI-1" vertex="1">
                    <mxGeometry x="51" y="19" width="125" height="399" as="geometry"/>
                </mxCell>
                <mxCell id="8HqMxeEqtBWhN2FCzSog-4" value="" style="rounded=0;whiteSpace=wrap;html=1;" parent="_stsKjn9J6mgS4FFukiI-1" vertex="1">
                    <mxGeometry x="176" y="19" width="593" height="41" as="geometry"/>
                </mxCell>
                <mxCell id="8HqMxeEqtBWhN2FCzSog-5" value="My Tasks" style="rounded=1;whiteSpace=wrap;html=1;" parent="_stsKjn9J6mgS4FFukiI-1" vertex="1">
                    <mxGeometry x="176" y="19" width="160" height="41" as="geometry"/>
                </mxCell>
                <mxCell id="8HqMxeEqtBWhN2FCzSog-6" value="Create Task" style="rounded=1;whiteSpace=wrap;html=1;" parent="_stsKjn9J6mgS4FFukiI-1" vertex="1">
                    <mxGeometry x="336" y="19" width="140.5" height="41" as="geometry"/>
                </mxCell>
                <mxCell id="8HqMxeEqtBWhN2FCzSog-7" value="Assign Task" style="rounded=1;whiteSpace=wrap;html=1;" parent="_stsKjn9J6mgS4FFukiI-1" vertex="1">
                    <mxGeometry x="476.5" y="19" width="145.5" height="41" as="geometry"/>
                </mxCell>
                <mxCell id="8HqMxeEqtBWhN2FCzSog-8" value="Completed Tasks" style="rounded=1;whiteSpace=wrap;html=1;" parent="_stsKjn9J6mgS4FFukiI-1" vertex="1">
                    <mxGeometry x="622.5" y="19" width="146.5" height="41" as="geometry"/>
                </mxCell>
            </root>
        </mxGraphModel>
    </diagram>
    <diagram id="pHl1vAuJ6-CCmdiAVpB4" name="My Tasks">
        <mxGraphModel dx="507" dy="431" grid="0" gridSize="10" guides="1" tooltips="1" connect="1" arrows="1" fold="1" page="1" pageScale="1" pageWidth="850" pageHeight="1100" background="#1A1A1A" math="0" shadow="0">
            <root>
                <mxCell id="rFtxpwJyTfSBVpTOi02H-0"/>
                <mxCell id="rFtxpwJyTfSBVpTOi02H-1" parent="rFtxpwJyTfSBVpTOi02H-0"/>
                <mxCell id="wvuiK6hBIdYkqlDsW6Lf-0" value="" style="rounded=0;whiteSpace=wrap;html=1;strokeColor=#1A1A1A;" parent="rFtxpwJyTfSBVpTOi02H-1" vertex="1">
                    <mxGeometry x="51" y="19" width="718" height="399" as="geometry"/>
                </mxCell>
                <mxCell id="Hi1voFi1rSvEzZD3xp1w-0" value="Nav Bar" style="rounded=0;whiteSpace=wrap;html=1;" parent="rFtxpwJyTfSBVpTOi02H-1" vertex="1">
                    <mxGeometry x="51" y="19" width="125" height="399" as="geometry"/>
                </mxCell>
                <mxCell id="CaOG5jhrH4CRTiHn9fl2-0" value="" style="rounded=0;whiteSpace=wrap;html=1;" parent="rFtxpwJyTfSBVpTOi02H-1" vertex="1">
                    <mxGeometry x="176" y="19" width="593" height="41" as="geometry"/>
                </mxCell>
                <mxCell id="RSeJ43o4dhnLXPGRrQmL-0" value="My Tasks" style="rounded=1;whiteSpace=wrap;html=1;fontColor=#ffffff;fillColor=#919157;strokeColor=#FFFFFF;" parent="rFtxpwJyTfSBVpTOi02H-1" vertex="1">
                    <mxGeometry x="176" y="19" width="146" height="41" as="geometry"/>
                </mxCell>
                <mxCell id="e23ib-u8iLcf5GbvH8lC-0" value="Create Task" style="rounded=1;whiteSpace=wrap;html=1;" parent="rFtxpwJyTfSBVpTOi02H-1" vertex="1">
                    <mxGeometry x="322" y="19" width="155" height="41" as="geometry"/>
                </mxCell>
                <mxCell id="PRMzhugZ8I0BV1_2vok2-0" value="Assign Task" style="rounded=1;whiteSpace=wrap;html=1;" parent="rFtxpwJyTfSBVpTOi02H-1" vertex="1">
                    <mxGeometry x="477" y="19" width="139" height="41" as="geometry"/>
                </mxCell>
                <mxCell id="PJh_KczWJRqGEtrVvxcz-0" value="Completed Tasks" style="rounded=1;whiteSpace=wrap;html=1;" parent="rFtxpwJyTfSBVpTOi02H-1" vertex="1">
                    <mxGeometry x="617" y="19" width="152" height="41" as="geometry"/>
                </mxCell>
                <mxCell id="iSOSR4pjiWS_D90dqeTs-1" value="" style="rounded=1;whiteSpace=wrap;html=1;strokeColor=#FFFFFF;fillColor=none;arcSize=4;" parent="rFtxpwJyTfSBVpTOi02H-1" vertex="1">
                    <mxGeometry x="209" y="97" width="523" height="276" as="geometry"/>
                </mxCell>
                <mxCell id="iSOSR4pjiWS_D90dqeTs-2" value="" style="rounded=1;whiteSpace=wrap;html=1;strokeColor=#FFFFFF;fillColor=none;arcSize=25;" parent="rFtxpwJyTfSBVpTOi02H-1" vertex="1">
                    <mxGeometry x="209" y="97" width="523" height="45" as="geometry"/>
                </mxCell>
                <mxCell id="iSOSR4pjiWS_D90dqeTs-3" value="Date assigned" style="rounded=0;whiteSpace=wrap;html=1;strokeColor=#FFFFFF;fillColor=none;" parent="rFtxpwJyTfSBVpTOi02H-1" vertex="1">
                    <mxGeometry x="218" y="104" width="79" height="32" as="geometry"/>
                </mxCell>
                <mxCell id="iSOSR4pjiWS_D90dqeTs-4" value="Date expected" style="rounded=0;whiteSpace=wrap;html=1;strokeColor=#FFFFFF;fillColor=none;" parent="rFtxpwJyTfSBVpTOi02H-1" vertex="1">
                    <mxGeometry x="304" y="104.5" width="81" height="31" as="geometry"/>
                </mxCell>
                <mxCell id="iSOSR4pjiWS_D90dqeTs-6" value="Description" style="rounded=0;whiteSpace=wrap;html=1;strokeColor=#FFFFFF;fillColor=none;" parent="rFtxpwJyTfSBVpTOi02H-1" vertex="1">
                    <mxGeometry x="394" y="104.5" width="73" height="31" as="geometry"/>
                </mxCell>
                <mxCell id="iSOSR4pjiWS_D90dqeTs-7" value="Assignor" style="rounded=0;whiteSpace=wrap;html=1;strokeColor=#FFFFFF;fillColor=none;" parent="rFtxpwJyTfSBVpTOi02H-1" vertex="1">
                    <mxGeometry x="476" y="104.5" width="66" height="31" as="geometry"/>
                </mxCell>
                <mxCell id="iSOSR4pjiWS_D90dqeTs-8" value="Status" style="rounded=0;whiteSpace=wrap;html=1;strokeColor=#FFFFFF;fillColor=none;" parent="rFtxpwJyTfSBVpTOi02H-1" vertex="1">
                    <mxGeometry x="550.5" y="105" width="64.5" height="31" as="geometry"/>
                </mxCell>
                <mxCell id="iSOSR4pjiWS_D90dqeTs-9" value="Actions" style="rounded=0;whiteSpace=wrap;html=1;strokeColor=#FFFFFF;fillColor=none;" parent="rFtxpwJyTfSBVpTOi02H-1" vertex="1">
                    <mxGeometry x="624" y="105" width="100" height="31" as="geometry"/>
                </mxCell>
                <mxCell id="iSOSR4pjiWS_D90dqeTs-11" value="Finish" style="rounded=1;whiteSpace=wrap;html=1;strokeColor=#FFFFFF;fillColor=none;" parent="rFtxpwJyTfSBVpTOi02H-1" vertex="1">
                    <mxGeometry x="624" y="180" width="46" height="21" as="geometry"/>
                </mxCell>
                <mxCell id="iSOSR4pjiWS_D90dqeTs-12" value="Discard" style="rounded=1;whiteSpace=wrap;html=1;strokeColor=#FFFFFF;fillColor=none;" parent="rFtxpwJyTfSBVpTOi02H-1" vertex="1">
                    <mxGeometry x="675" y="180" width="46" height="21" as="geometry"/>
                </mxCell>
                <mxCell id="iSOSR4pjiWS_D90dqeTs-14" value="In Progress" style="rounded=1;whiteSpace=wrap;html=1;strokeColor=#FFFFFF;fillColor=none;" parent="rFtxpwJyTfSBVpTOi02H-1" vertex="1">
                    <mxGeometry x="547.75" y="180" width="70" height="21" as="geometry"/>
                </mxCell>
                <mxCell id="iSOSR4pjiWS_D90dqeTs-15" value="Team name" style="rounded=1;whiteSpace=wrap;html=1;strokeColor=#FFFFFF;fillColor=none;" parent="rFtxpwJyTfSBVpTOi02H-1" vertex="1">
                    <mxGeometry x="472" y="180" width="69" height="21" as="geometry"/>
                </mxCell>
                <mxCell id="iSOSR4pjiWS_D90dqeTs-16" value="Do task" style="rounded=1;whiteSpace=wrap;html=1;strokeColor=#FFFFFF;fillColor=none;" parent="rFtxpwJyTfSBVpTOi02H-1" vertex="1">
                    <mxGeometry x="394" y="180" width="71" height="21" as="geometry"/>
                </mxCell>
                <mxCell id="iSOSR4pjiWS_D90dqeTs-18" value="12.03.2022" style="rounded=1;whiteSpace=wrap;html=1;strokeColor=#FFFFFF;fillColor=none;" parent="rFtxpwJyTfSBVpTOi02H-1" vertex="1">
                    <mxGeometry x="222" y="180" width="71" height="21" as="geometry"/>
                </mxCell>
                <mxCell id="iSOSR4pjiWS_D90dqeTs-19" value="21.03.2022" style="rounded=1;whiteSpace=wrap;html=1;strokeColor=#FFFFFF;fillColor=none;" parent="rFtxpwJyTfSBVpTOi02H-1" vertex="1">
                    <mxGeometry x="309" y="180" width="71" height="21" as="geometry"/>
                </mxCell>
                <mxCell id="hemQo-VLLViDGfoWr0dn-1" value="&amp;lt; Prev 1, 2... Next &amp;gt;" style="rounded=0;whiteSpace=wrap;html=1;strokeColor=#FFFFFF;fillColor=none;" parent="rFtxpwJyTfSBVpTOi02H-1" vertex="1">
                    <mxGeometry x="605" y="384" width="112" height="20" as="geometry"/>
                </mxCell>
            </root>
        </mxGraphModel>
    </diagram>
    <diagram name="Create Task" id="Bxey_xHAdlFk8AuAzYJt">
        <mxGraphModel dx="507" dy="431" grid="0" gridSize="10" guides="1" tooltips="1" connect="1" arrows="1" fold="1" page="1" pageScale="1" pageWidth="850" pageHeight="1100" background="#1A1A1A" math="0" shadow="0">
            <root>
                <mxCell id="ZsSHGhpnrCpq3rTv32ys-0"/>
                <mxCell id="ZsSHGhpnrCpq3rTv32ys-1" parent="ZsSHGhpnrCpq3rTv32ys-0"/>
                <mxCell id="ZsSHGhpnrCpq3rTv32ys-2" value="" style="rounded=0;whiteSpace=wrap;html=1;strokeColor=#1A1A1A;" parent="ZsSHGhpnrCpq3rTv32ys-1" vertex="1">
                    <mxGeometry x="51" y="19" width="718" height="399" as="geometry"/>
                </mxCell>
                <mxCell id="ZsSHGhpnrCpq3rTv32ys-3" value="Nav Bar" style="rounded=0;whiteSpace=wrap;html=1;" parent="ZsSHGhpnrCpq3rTv32ys-1" vertex="1">
                    <mxGeometry x="51" y="19" width="125" height="399" as="geometry"/>
                </mxCell>
                <mxCell id="ZsSHGhpnrCpq3rTv32ys-4" value="" style="rounded=0;whiteSpace=wrap;html=1;" parent="ZsSHGhpnrCpq3rTv32ys-1" vertex="1">
                    <mxGeometry x="176" y="19" width="593" height="41" as="geometry"/>
                </mxCell>
                <mxCell id="ZsSHGhpnrCpq3rTv32ys-5" value="My Tasks" style="rounded=1;whiteSpace=wrap;html=1;fontColor=#ffffff;fillColor=none;" parent="ZsSHGhpnrCpq3rTv32ys-1" vertex="1">
                    <mxGeometry x="176" y="19" width="152" height="41" as="geometry"/>
                </mxCell>
                <mxCell id="ZsSHGhpnrCpq3rTv32ys-6" value="Create Task" style="rounded=1;whiteSpace=wrap;html=1;fillColor=#919157;" parent="ZsSHGhpnrCpq3rTv32ys-1" vertex="1">
                    <mxGeometry x="328" y="19" width="144" height="41" as="geometry"/>
                </mxCell>
                <mxCell id="ZsSHGhpnrCpq3rTv32ys-7" value="Assign Task" style="rounded=1;whiteSpace=wrap;html=1;" parent="ZsSHGhpnrCpq3rTv32ys-1" vertex="1">
                    <mxGeometry x="472" y="19" width="152" height="41" as="geometry"/>
                </mxCell>
                <mxCell id="ZsSHGhpnrCpq3rTv32ys-8" value="Completed Tasks" style="rounded=1;whiteSpace=wrap;html=1;" parent="ZsSHGhpnrCpq3rTv32ys-1" vertex="1">
                    <mxGeometry x="624" y="19" width="145" height="41" as="geometry"/>
                </mxCell>
                <mxCell id="Ke21fHxqQqG8J6SMrubk-0" value="" style="rounded=1;whiteSpace=wrap;html=1;strokeColor=#FFFFFF;fillColor=none;arcSize=2;" parent="ZsSHGhpnrCpq3rTv32ys-1" vertex="1">
                    <mxGeometry x="283.5" y="78" width="378" height="313" as="geometry"/>
                </mxCell>
                <mxCell id="c3cHqSGqJFJKWqUba3KD-0" value="Text area" style="rounded=1;whiteSpace=wrap;html=1;strokeColor=#FFFFFF;fillColor=none;" parent="ZsSHGhpnrCpq3rTv32ys-1" vertex="1">
                    <mxGeometry x="371.5" y="143" width="202" height="62" as="geometry"/>
                </mxCell>
                <mxCell id="c3cHqSGqJFJKWqUba3KD-1" value="// consider adding calendar" style="rounded=1;whiteSpace=wrap;html=1;strokeColor=#FFFFFF;fillColor=none;" parent="ZsSHGhpnrCpq3rTv32ys-1" vertex="1">
                    <mxGeometry x="371.5" y="241" width="202" height="19" as="geometry"/>
                </mxCell>
                <mxCell id="c3cHqSGqJFJKWqUba3KD-2" value="Create" style="rounded=1;whiteSpace=wrap;html=1;strokeColor=#FFFFFF;fillColor=none;" parent="ZsSHGhpnrCpq3rTv32ys-1" vertex="1">
                    <mxGeometry x="422.5" y="311" width="95" height="22" as="geometry"/>
                </mxCell>
                <mxCell id="uvusIKV-X1y8kiem35Ue-1" value="Date expected" style="rounded=0;whiteSpace=wrap;html=1;fillColor=none;strokeColor=none;" parent="ZsSHGhpnrCpq3rTv32ys-1" vertex="1">
                    <mxGeometry x="422.5" y="217" width="104.5" height="18" as="geometry"/>
                </mxCell>
                <mxCell id="uvusIKV-X1y8kiem35Ue-2" value="Descriptions" style="rounded=0;whiteSpace=wrap;html=1;fillColor=none;strokeColor=none;" parent="ZsSHGhpnrCpq3rTv32ys-1" vertex="1">
                    <mxGeometry x="420.25" y="115" width="104.5" height="18" as="geometry"/>
                </mxCell>
            </root>
        </mxGraphModel>
    </diagram>
    <diagram name="Assign Task" id="cJ7nPaUIGkfXLcd0R4wP">
        <mxGraphModel dx="734" dy="431" grid="0" gridSize="10" guides="1" tooltips="1" connect="1" arrows="1" fold="1" page="1" pageScale="1" pageWidth="850" pageHeight="1100" background="#1A1A1A" math="0" shadow="0">
            <root>
                <mxCell id="-d6uGLVHtzoNQH3JRqCv-0"/>
                <mxCell id="-d6uGLVHtzoNQH3JRqCv-1" parent="-d6uGLVHtzoNQH3JRqCv-0"/>
                <mxCell id="-d6uGLVHtzoNQH3JRqCv-2" value="" style="rounded=0;whiteSpace=wrap;html=1;strokeColor=#1A1A1A;" parent="-d6uGLVHtzoNQH3JRqCv-1" vertex="1">
                    <mxGeometry x="51" y="19" width="718" height="399" as="geometry"/>
                </mxCell>
                <mxCell id="-d6uGLVHtzoNQH3JRqCv-3" value="Nav Bar" style="rounded=0;whiteSpace=wrap;html=1;" parent="-d6uGLVHtzoNQH3JRqCv-1" vertex="1">
                    <mxGeometry x="51" y="19" width="125" height="399" as="geometry"/>
                </mxCell>
                <mxCell id="-d6uGLVHtzoNQH3JRqCv-4" value="" style="rounded=0;whiteSpace=wrap;html=1;" parent="-d6uGLVHtzoNQH3JRqCv-1" vertex="1">
                    <mxGeometry x="176" y="19" width="593" height="41" as="geometry"/>
                </mxCell>
                <mxCell id="-d6uGLVHtzoNQH3JRqCv-5" value="My Tasks" style="rounded=1;whiteSpace=wrap;html=1;fontColor=#ffffff;strokeColor=#FFFFFF;fillColor=none;" parent="-d6uGLVHtzoNQH3JRqCv-1" vertex="1">
                    <mxGeometry x="176" y="19" width="146" height="41" as="geometry"/>
                </mxCell>
                <mxCell id="-d6uGLVHtzoNQH3JRqCv-6" value="Create Task" style="rounded=1;whiteSpace=wrap;html=1;" parent="-d6uGLVHtzoNQH3JRqCv-1" vertex="1">
                    <mxGeometry x="322" y="19" width="155" height="41" as="geometry"/>
                </mxCell>
                <mxCell id="-d6uGLVHtzoNQH3JRqCv-8" value="Completed Tasks" style="rounded=1;whiteSpace=wrap;html=1;" parent="-d6uGLVHtzoNQH3JRqCv-1" vertex="1">
                    <mxGeometry x="617" y="19" width="152" height="41" as="geometry"/>
                </mxCell>
                <mxCell id="-d6uGLVHtzoNQH3JRqCv-9" value="" style="rounded=1;whiteSpace=wrap;html=1;strokeColor=#FFFFFF;fillColor=none;arcSize=4;" parent="-d6uGLVHtzoNQH3JRqCv-1" vertex="1">
                    <mxGeometry x="209" y="97" width="523" height="276" as="geometry"/>
                </mxCell>
                <mxCell id="-d6uGLVHtzoNQH3JRqCv-10" value="" style="rounded=1;whiteSpace=wrap;html=1;strokeColor=#FFFFFF;fillColor=none;arcSize=25;" parent="-d6uGLVHtzoNQH3JRqCv-1" vertex="1">
                    <mxGeometry x="209" y="97" width="523" height="45" as="geometry"/>
                </mxCell>
                <mxCell id="-d6uGLVHtzoNQH3JRqCv-13" value="Description" style="rounded=0;whiteSpace=wrap;html=1;strokeColor=#FFFFFF;fillColor=none;" parent="-d6uGLVHtzoNQH3JRqCv-1" vertex="1">
                    <mxGeometry x="224" y="104" width="135" height="30" as="geometry"/>
                </mxCell>
                <mxCell id="-d6uGLVHtzoNQH3JRqCv-15" value="Status" style="rounded=0;whiteSpace=wrap;html=1;strokeColor=#FFFFFF;fillColor=none;" parent="-d6uGLVHtzoNQH3JRqCv-1" vertex="1">
                    <mxGeometry x="474" y="104" width="111" height="31" as="geometry"/>
                </mxCell>
                <mxCell id="-d6uGLVHtzoNQH3JRqCv-16" value="Actions" style="rounded=0;whiteSpace=wrap;html=1;strokeColor=#FFFFFF;fillColor=none;" parent="-d6uGLVHtzoNQH3JRqCv-1" vertex="1">
                    <mxGeometry x="610" y="105" width="114" height="31" as="geometry"/>
                </mxCell>
                <mxCell id="1939-oEAYyq0XxtyMWqY-0" value="" style="edgeStyle=none;html=1;" parent="-d6uGLVHtzoNQH3JRqCv-1" source="-d6uGLVHtzoNQH3JRqCv-17" target="-d6uGLVHtzoNQH3JRqCv-16" edge="1">
                    <mxGeometry relative="1" as="geometry"/>
                </mxCell>
                <mxCell id="-d6uGLVHtzoNQH3JRqCv-17" value="Assign" style="rounded=1;whiteSpace=wrap;html=1;strokeColor=#FFFFFF;fillColor=none;" parent="-d6uGLVHtzoNQH3JRqCv-1" vertex="1">
                    <mxGeometry x="615" y="152" width="51" height="21" as="geometry"/>
                </mxCell>
                <mxCell id="-d6uGLVHtzoNQH3JRqCv-19" value="Unassigned" style="rounded=1;whiteSpace=wrap;html=1;strokeColor=#FFFFFF;fillColor=none;" parent="-d6uGLVHtzoNQH3JRqCv-1" vertex="1">
                    <mxGeometry x="494.5" y="157" width="70" height="21" as="geometry"/>
                </mxCell>
                <mxCell id="-d6uGLVHtzoNQH3JRqCv-21" value="Do task" style="rounded=1;whiteSpace=wrap;html=1;strokeColor=#FFFFFF;fillColor=none;" parent="-d6uGLVHtzoNQH3JRqCv-1" vertex="1">
                    <mxGeometry x="242.5" y="157" width="98.5" height="21" as="geometry"/>
                </mxCell>
                <mxCell id="-d6uGLVHtzoNQH3JRqCv-24" value="&amp;lt; Prev 1, 2... Next &amp;gt;" style="rounded=0;whiteSpace=wrap;html=1;strokeColor=#FFFFFF;fillColor=none;" parent="-d6uGLVHtzoNQH3JRqCv-1" vertex="1">
                    <mxGeometry x="605" y="384" width="112" height="20" as="geometry"/>
                </mxCell>
                <mxCell id="WlrlAzkwXOQOMHE0fft9-0" value="&lt;span style=&quot;color: rgb(240 , 240 , 240)&quot;&gt;Assign Task&lt;/span&gt;" style="rounded=1;whiteSpace=wrap;html=1;fontColor=#ffffff;fillColor=#919157;strokeColor=#FFFFFF;" parent="-d6uGLVHtzoNQH3JRqCv-1" vertex="1">
                    <mxGeometry x="477" y="19" width="146" height="41" as="geometry"/>
                </mxCell>
                <mxCell id="WlrlAzkwXOQOMHE0fft9-6" value="" style="endArrow=classic;html=1;" parent="-d6uGLVHtzoNQH3JRqCv-1" edge="1">
                    <mxGeometry width="50" height="50" relative="1" as="geometry">
                        <mxPoint x="674" y="199" as="sourcePoint"/>
                        <mxPoint x="659" y="178" as="targetPoint"/>
                    </mxGeometry>
                </mxCell>
                <mxCell id="WlrlAzkwXOQOMHE0fft9-7" value="Click" style="text;html=1;strokeColor=none;fillColor=none;align=center;verticalAlign=middle;whiteSpace=wrap;rounded=0;" parent="-d6uGLVHtzoNQH3JRqCv-1" vertex="1">
                    <mxGeometry x="659.5" y="198" width="40" height="20" as="geometry"/>
                </mxCell>
                <mxCell id="WlrlAzkwXOQOMHE0fft9-8" value="" style="rounded=1;whiteSpace=wrap;html=1;strokeColor=#FFFFFF;fillColor=none;" parent="-d6uGLVHtzoNQH3JRqCv-1" vertex="1">
                    <mxGeometry x="407" y="198" width="121" height="169" as="geometry"/>
                </mxCell>
                <mxCell id="WlrlAzkwXOQOMHE0fft9-9" value="On Click&amp;nbsp; &amp;nbsp; ❌" style="text;html=1;strokeColor=none;fillColor=none;align=center;verticalAlign=middle;whiteSpace=wrap;rounded=0;" parent="-d6uGLVHtzoNQH3JRqCv-1" vertex="1">
                    <mxGeometry x="443.25" y="201" width="84" height="20" as="geometry"/>
                </mxCell>
                <mxCell id="WlrlAzkwXOQOMHE0fft9-10" value="Assign to" style="text;html=1;strokeColor=none;fillColor=none;align=center;verticalAlign=middle;whiteSpace=wrap;rounded=0;" parent="-d6uGLVHtzoNQH3JRqCv-1" vertex="1">
                    <mxGeometry x="443.25" y="256" width="54.5" height="20" as="geometry"/>
                </mxCell>
                <mxCell id="-wRoNFBxaPC4G9J7-9-X-0" value="Date expected" style="rounded=0;whiteSpace=wrap;html=1;strokeColor=#FFFFFF;fillColor=none;" parent="-d6uGLVHtzoNQH3JRqCv-1" vertex="1">
                    <mxGeometry x="369" y="103" width="91" height="31" as="geometry"/>
                </mxCell>
                <mxCell id="wRUUH35wcuywhK6iV5tM-0" value="21.03.2022" style="rounded=1;whiteSpace=wrap;html=1;strokeColor=#FFFFFF;fillColor=none;" parent="-d6uGLVHtzoNQH3JRqCv-1" vertex="1">
                    <mxGeometry x="379" y="157" width="71" height="21" as="geometry"/>
                </mxCell>
                <mxCell id="wRUUH35wcuywhK6iV5tM-1" value="&amp;nbsp; &amp;nbsp; &amp;nbsp; &amp;nbsp; &amp;nbsp; &amp;nbsp;Petar &lt;span style=&quot;white-space: pre&quot;&gt;&#9;&lt;/span&gt;&amp;nbsp; &amp;nbsp;⇩" style="rounded=1;whiteSpace=wrap;html=1;strokeColor=#FFFFFF;fillColor=none;arcSize=6;" parent="-d6uGLVHtzoNQH3JRqCv-1" vertex="1">
                    <mxGeometry x="414" y="291" width="107" height="19" as="geometry"/>
                </mxCell>
                <mxCell id="wRUUH35wcuywhK6iV5tM-2" value="Done" style="rounded=1;whiteSpace=wrap;html=1;strokeColor=#FFFFFF;fillColor=none;arcSize=6;" parent="-d6uGLVHtzoNQH3JRqCv-1" vertex="1">
                    <mxGeometry x="438" y="337" width="59" height="19" as="geometry"/>
                </mxCell>
                <mxCell id="Gfn90-gNhuyTiFrUTFyA-0" value="Delete" style="rounded=1;whiteSpace=wrap;html=1;strokeColor=#FFFFFF;fillColor=none;" parent="-d6uGLVHtzoNQH3JRqCv-1" vertex="1">
                    <mxGeometry x="677" y="152" width="47" height="21" as="geometry"/>
                </mxCell>
            </root>
        </mxGraphModel>
    </diagram>
    <diagram name="Completed Tasks" id="O-qeXNkXiSpv7LuSf_s7">
        <mxGraphModel dx="734" dy="431" grid="0" gridSize="10" guides="1" tooltips="1" connect="1" arrows="1" fold="1" page="1" pageScale="1" pageWidth="850" pageHeight="1100" background="#1A1A1A" math="0" shadow="0">
            <root>
                <mxCell id="WiA8dWx4sJC2M9pHra-r-0"/>
                <mxCell id="WiA8dWx4sJC2M9pHra-r-1" parent="WiA8dWx4sJC2M9pHra-r-0"/>
                <mxCell id="WiA8dWx4sJC2M9pHra-r-2" value="" style="rounded=0;whiteSpace=wrap;html=1;strokeColor=#1A1A1A;" parent="WiA8dWx4sJC2M9pHra-r-1" vertex="1">
                    <mxGeometry x="51" y="19" width="718" height="399" as="geometry"/>
                </mxCell>
                <mxCell id="WiA8dWx4sJC2M9pHra-r-3" value="Nav Bar" style="rounded=0;whiteSpace=wrap;html=1;" parent="WiA8dWx4sJC2M9pHra-r-1" vertex="1">
                    <mxGeometry x="51" y="19" width="125" height="399" as="geometry"/>
                </mxCell>
                <mxCell id="WiA8dWx4sJC2M9pHra-r-4" value="" style="rounded=0;whiteSpace=wrap;html=1;" parent="WiA8dWx4sJC2M9pHra-r-1" vertex="1">
                    <mxGeometry x="176" y="19" width="593" height="41" as="geometry"/>
                </mxCell>
                <mxCell id="WiA8dWx4sJC2M9pHra-r-5" value="My Tasks" style="rounded=1;whiteSpace=wrap;html=1;fontColor=#ffffff;fillColor=none;" parent="WiA8dWx4sJC2M9pHra-r-1" vertex="1">
                    <mxGeometry x="176" y="19" width="150" height="41" as="geometry"/>
                </mxCell>
                <mxCell id="WiA8dWx4sJC2M9pHra-r-6" value="Create Task" style="rounded=1;whiteSpace=wrap;html=1;fillColor=none;" parent="WiA8dWx4sJC2M9pHra-r-1" vertex="1">
                    <mxGeometry x="326" y="19" width="150" height="41" as="geometry"/>
                </mxCell>
                <mxCell id="WiA8dWx4sJC2M9pHra-r-8" value="Assign Task" style="rounded=1;whiteSpace=wrap;html=1;fillColor=none;" parent="WiA8dWx4sJC2M9pHra-r-1" vertex="1">
                    <mxGeometry x="476" y="19" width="147" height="41" as="geometry"/>
                </mxCell>
                <mxCell id="cM4Ksz01445tkiUoxyJE-0" value="Completed Tasks" style="rounded=1;whiteSpace=wrap;html=1;fillColor=#919157;" parent="WiA8dWx4sJC2M9pHra-r-1" vertex="1">
                    <mxGeometry x="623" y="19" width="146" height="41" as="geometry"/>
                </mxCell>
                <mxCell id="oLJ5IxPInW0GDMZlkzjV-0" value="" style="rounded=1;whiteSpace=wrap;html=1;strokeColor=#FFFFFF;fillColor=none;arcSize=4;" parent="WiA8dWx4sJC2M9pHra-r-1" vertex="1">
                    <mxGeometry x="209" y="97" width="523" height="276" as="geometry"/>
                </mxCell>
                <mxCell id="jyz27ldPRALnxDF8ttWs-0" value="Status" style="rounded=0;whiteSpace=wrap;html=1;strokeColor=#FFFFFF;fillColor=none;" parent="WiA8dWx4sJC2M9pHra-r-1" vertex="1">
                    <mxGeometry x="474" y="104" width="111" height="31" as="geometry"/>
                </mxCell>
                <mxCell id="jFvBmja7Rj_c1NjJQhzc-0" value="Actions" style="rounded=0;whiteSpace=wrap;html=1;strokeColor=#FFFFFF;fillColor=none;" parent="WiA8dWx4sJC2M9pHra-r-1" vertex="1">
                    <mxGeometry x="609" y="104" width="114" height="31" as="geometry"/>
                </mxCell>
                <mxCell id="gkjrHeyIWmqABGeuZLU2-0" value="" style="rounded=1;whiteSpace=wrap;html=1;strokeColor=#FFFFFF;fillColor=none;arcSize=25;" parent="WiA8dWx4sJC2M9pHra-r-1" vertex="1">
                    <mxGeometry x="209" y="97" width="523" height="45" as="geometry"/>
                </mxCell>
                <mxCell id="2U21DbupnZqRPkC9MNh9-0" value="Description" style="rounded=0;whiteSpace=wrap;html=1;strokeColor=#FFFFFF;fillColor=none;" parent="WiA8dWx4sJC2M9pHra-r-1" vertex="1">
                    <mxGeometry x="224" y="104" width="135" height="30" as="geometry"/>
                </mxCell>
                <mxCell id="cCi0dS66BllbgtkkKrQ1-0" value="Date completed" style="rounded=0;whiteSpace=wrap;html=1;strokeColor=#FFFFFF;fillColor=none;" parent="WiA8dWx4sJC2M9pHra-r-1" vertex="1">
                    <mxGeometry x="369" y="103" width="91" height="31" as="geometry"/>
                </mxCell>
                <mxCell id="nk0Ir3Q5ZPaJsux98ANz-0" value="Do task" style="rounded=1;whiteSpace=wrap;html=1;strokeColor=#FFFFFF;fillColor=none;" parent="WiA8dWx4sJC2M9pHra-r-1" vertex="1">
                    <mxGeometry x="242.5" y="157" width="98.5" height="21" as="geometry"/>
                </mxCell>
                <mxCell id="gSj1uyy5Z8WHarsvOAO2-0" value="21.03.2022" style="rounded=1;whiteSpace=wrap;html=1;strokeColor=#FFFFFF;fillColor=none;" parent="WiA8dWx4sJC2M9pHra-r-1" vertex="1">
                    <mxGeometry x="379" y="157" width="71" height="21" as="geometry"/>
                </mxCell>
                <mxCell id="ZH8vWketIqycN6btvG7R-0" value="Completed" style="rounded=1;whiteSpace=wrap;html=1;strokeColor=#FFFFFF;fillColor=none;" parent="WiA8dWx4sJC2M9pHra-r-1" vertex="1">
                    <mxGeometry x="494.5" y="157" width="70" height="21" as="geometry"/>
                </mxCell>
                <mxCell id="kh_L2bNW6c3fiOowullT-0" value="Remove" style="rounded=1;whiteSpace=wrap;html=1;strokeColor=#FFFFFF;fillColor=none;" parent="WiA8dWx4sJC2M9pHra-r-1" vertex="1">
                    <mxGeometry x="609" y="157" width="52" height="21" as="geometry"/>
                </mxCell>
                <mxCell id="kh_L2bNW6c3fiOowullT-1" value="Re-assign" style="rounded=1;whiteSpace=wrap;html=1;strokeColor=#FFFFFF;fillColor=none;" parent="WiA8dWx4sJC2M9pHra-r-1" vertex="1">
                    <mxGeometry x="663" y="157" width="64" height="21" as="geometry"/>
                </mxCell>
                <mxCell id="6OROFVQbzEqnhtISaCTt-0" value="&amp;lt; Prev 1, 2... Next &amp;gt;" style="rounded=0;whiteSpace=wrap;html=1;strokeColor=#FFFFFF;fillColor=none;" parent="WiA8dWx4sJC2M9pHra-r-1" vertex="1">
                    <mxGeometry x="605" y="384" width="112" height="20" as="geometry"/>
                </mxCell>
            </root>
        </mxGraphModel>
    </diagram>
    <diagram id="-ag7Ej0qdeEFNoQbUuf4" name="My Team">
        <mxGraphModel dx="734" dy="431" grid="1" gridSize="10" guides="1" tooltips="1" connect="1" arrows="1" fold="1" page="1" pageScale="1" pageWidth="850" pageHeight="1100" math="0" shadow="0">
            <root>
                <mxCell id="4iIEkwaZPybvZRo9EEbi-0"/>
                <mxCell id="4iIEkwaZPybvZRo9EEbi-1" parent="4iIEkwaZPybvZRo9EEbi-0"/>
                <mxCell id="KhD_IZrWZJCpMSw3frrv-0" value="" style="rounded=0;whiteSpace=wrap;html=1;strokeColor=#1A1A1A;" parent="4iIEkwaZPybvZRo9EEbi-1" vertex="1">
                    <mxGeometry x="40" y="19" width="718" height="399" as="geometry"/>
                </mxCell>
                <mxCell id="KhD_IZrWZJCpMSw3frrv-1" value="Members info" style="rounded=0;whiteSpace=wrap;html=1;" parent="4iIEkwaZPybvZRo9EEbi-1" vertex="1">
                    <mxGeometry x="90" y="100" width="610" height="260" as="geometry"/>
                </mxCell>
                <mxCell id="KhD_IZrWZJCpMSw3frrv-3" value="Add member" style="rounded=1;whiteSpace=wrap;html=1;" parent="4iIEkwaZPybvZRo9EEbi-1" vertex="1">
                    <mxGeometry x="150" y="40" width="130" height="40" as="geometry"/>
                </mxCell>
                <mxCell id="KhD_IZrWZJCpMSw3frrv-4" value="Remove member" style="rounded=1;whiteSpace=wrap;html=1;" parent="4iIEkwaZPybvZRo9EEbi-1" vertex="1">
                    <mxGeometry x="500" y="40" width="130" height="40" as="geometry"/>
                </mxCell>
            </root>
        </mxGraphModel>
    </diagram>
    <diagram id="Ec480ck-zMMzymx8l889" name="Settings">
        <mxGraphModel dx="507" dy="431" grid="1" gridSize="10" guides="1" tooltips="1" connect="1" arrows="1" fold="1" page="1" pageScale="1" pageWidth="850" pageHeight="1100" math="0" shadow="0">
            <root>
                <mxCell id="y-bkSKa-kZ-drS1O1ibp-0"/>
                <mxCell id="y-bkSKa-kZ-drS1O1ibp-1" parent="y-bkSKa-kZ-drS1O1ibp-0"/>
                <mxCell id="G_LopHTZM4aM7i9KBW6a-0" value="" style="rounded=0;whiteSpace=wrap;html=1;strokeColor=#1A1A1A;" parent="y-bkSKa-kZ-drS1O1ibp-1" vertex="1">
                    <mxGeometry x="30" y="19" width="718" height="399" as="geometry"/>
                </mxCell>
                <mxCell id="0grxZ-pMvtG4CBqQfN5u-0" value="Nav Bar" style="rounded=0;whiteSpace=wrap;html=1;" parent="y-bkSKa-kZ-drS1O1ibp-1" vertex="1">
                    <mxGeometry x="30" y="19" width="125" height="399" as="geometry"/>
                </mxCell>
                <mxCell id="0grxZ-pMvtG4CBqQfN5u-1" value="" style="rounded=1;whiteSpace=wrap;html=1;" parent="y-bkSKa-kZ-drS1O1ibp-1" vertex="1">
                    <mxGeometry x="470" y="50" width="40" height="10" as="geometry"/>
                </mxCell>
                <mxCell id="0grxZ-pMvtG4CBqQfN5u-2" value="Switch Theme" style="text;html=1;strokeColor=none;fillColor=none;align=center;verticalAlign=middle;whiteSpace=wrap;rounded=0;" parent="y-bkSKa-kZ-drS1O1ibp-1" vertex="1">
                    <mxGeometry x="190" y="45" width="150" height="20" as="geometry"/>
                </mxCell>
                <mxCell id="0grxZ-pMvtG4CBqQfN5u-5" value="Light" style="text;html=1;strokeColor=none;fillColor=none;align=center;verticalAlign=middle;whiteSpace=wrap;rounded=0;" parent="y-bkSKa-kZ-drS1O1ibp-1" vertex="1">
                    <mxGeometry x="425" y="45" width="40" height="20" as="geometry"/>
                </mxCell>
                <mxCell id="0grxZ-pMvtG4CBqQfN5u-6" value="Dark" style="text;html=1;strokeColor=none;fillColor=none;align=center;verticalAlign=middle;whiteSpace=wrap;rounded=0;" parent="y-bkSKa-kZ-drS1O1ibp-1" vertex="1">
                    <mxGeometry x="520" y="45" width="40" height="20" as="geometry"/>
                </mxCell>
                <mxCell id="0grxZ-pMvtG4CBqQfN5u-7" value="" style="ellipse;whiteSpace=wrap;html=1;" parent="y-bkSKa-kZ-drS1O1ibp-1" vertex="1">
                    <mxGeometry x="470" y="50" width="10" height="10" as="geometry"/>
                </mxCell>
                <mxCell id="0grxZ-pMvtG4CBqQfN5u-8" value="" style="rounded=1;whiteSpace=wrap;html=1;" parent="y-bkSKa-kZ-drS1O1ibp-1" vertex="1">
                    <mxGeometry x="425" y="90" width="140" height="20" as="geometry"/>
                </mxCell>
                <mxCell id="0grxZ-pMvtG4CBqQfN5u-9" value="Change Usrename" style="text;html=1;strokeColor=none;fillColor=none;align=center;verticalAlign=middle;whiteSpace=wrap;rounded=0;" parent="y-bkSKa-kZ-drS1O1ibp-1" vertex="1">
                    <mxGeometry x="200" y="90" width="130" height="20" as="geometry"/>
                </mxCell>
                <mxCell id="0grxZ-pMvtG4CBqQfN5u-12" value="Change Team name" style="text;html=1;strokeColor=none;fillColor=none;align=center;verticalAlign=middle;whiteSpace=wrap;rounded=0;" parent="y-bkSKa-kZ-drS1O1ibp-1" vertex="1">
                    <mxGeometry x="200" y="140" width="130" height="20" as="geometry"/>
                </mxCell>
                <mxCell id="0grxZ-pMvtG4CBqQfN5u-13" value="" style="rounded=1;whiteSpace=wrap;html=1;" parent="y-bkSKa-kZ-drS1O1ibp-1" vertex="1">
                    <mxGeometry x="425" y="140" width="140" height="20" as="geometry"/>
                </mxCell>
                <mxCell id="0grxZ-pMvtG4CBqQfN5u-14" value="Change Password" style="text;html=1;strokeColor=none;fillColor=none;align=center;verticalAlign=middle;whiteSpace=wrap;rounded=0;" parent="y-bkSKa-kZ-drS1O1ibp-1" vertex="1">
                    <mxGeometry x="200" y="190" width="130" height="20" as="geometry"/>
                </mxCell>
                <mxCell id="0grxZ-pMvtG4CBqQfN5u-15" value="Old password" style="rounded=1;whiteSpace=wrap;html=1;" parent="y-bkSKa-kZ-drS1O1ibp-1" vertex="1">
                    <mxGeometry x="425" y="190" width="140" height="20" as="geometry"/>
                </mxCell>
                <mxCell id="0grxZ-pMvtG4CBqQfN5u-16" value="New password" style="rounded=1;whiteSpace=wrap;html=1;" parent="y-bkSKa-kZ-drS1O1ibp-1" vertex="1">
                    <mxGeometry x="425" y="220" width="140" height="20" as="geometry"/>
                </mxCell>
                <mxCell id="0grxZ-pMvtG4CBqQfN5u-17" value="Repeat password" style="rounded=1;whiteSpace=wrap;html=1;" parent="y-bkSKa-kZ-drS1O1ibp-1" vertex="1">
                    <mxGeometry x="425" y="250" width="140" height="20" as="geometry"/>
                </mxCell>
                <mxCell id="0grxZ-pMvtG4CBqQfN5u-18" value="Delete account" style="rounded=1;whiteSpace=wrap;html=1;" parent="y-bkSKa-kZ-drS1O1ibp-1" vertex="1">
                    <mxGeometry x="370" y="350" width="110" height="30" as="geometry"/>
                </mxCell>
                <mxCell id="0grxZ-pMvtG4CBqQfN5u-23" value="Apply" style="rounded=1;whiteSpace=wrap;html=1;" parent="y-bkSKa-kZ-drS1O1ibp-1" vertex="1">
                    <mxGeometry x="380" y="300" width="91" height="20" as="geometry"/>
                </mxCell>
            </root>
        </mxGraphModel>
    </diagram>
</mxfile>